<?xml version="1.0" encoding="US-ASCII" standalone="no"?>
<!DOCTYPE svg PUBLIC "-//W3C//DTD SVG 1.1//EN"
  "http://www.w3.org/Graphics/SVG/1.1/DTD/svg11.dtd">
<svg width="800" height="600" xmlns="http://www.w3.org/2000/svg" version="1.1"><g opacity="0"><animate attributeName="opacity" repeatCount="indefinite" begin="0" dur="20" keyTimes="0;0.25;0.5;0.75;1" values="0;0;0;1;0"/><g transform="translate(100,250)"><g transform="scale(1,1)"><animateTransform attributeName="transform" type="scale" repeatCount="indefinite" begin="0" dur="10" keyTimes="0;0.45;1" values="1,1;1,1;4,4"/><g transform="translate(0,0)"><animateTransform attributeName="transform" type="translate" repeatCount="indefinite" begin="0" dur="10" keyTimes="0;0.45;0.75;1" values="0,0;0,0;-150,-50;-250,-50"/><g transform="rotate(0)"><animateTransform attributeName="transform" type="rotate" repeatCount="indefinite" begin="0" dur="10" keyTimes="0;0.45;1" values="0;0;90"/><g stroke="#ffff00" stroke-opacity="1" stroke-width="5"><g fill="#000000" fill-opacity="0"><g transform="translate(50,0)"><polygon points="10,0 40,0 50,25 45,40 40,50 20,50 20,25 30,25 0,25 20,25 20,0"/></g><g transform="translate(125,0)"><g transform="translate(0,25)"><ellipse rx="15" ry="25"/></g></g><g transform="translate(150,0)"><polygon points="40,0 30,2.5 20,5 10,7.5 0,25 10,42.5 20,45 30,47.5 40,50 30,47.5 20,45 10,42.5 0,25 10,7.5 20,5 30,2.5 40,0"/></g><g transform="translate(190,0)"><polygon points="10,0 40,0 25,0 25,50 25,0"/></g><g transform="translate(250,0)"><g transform="translate(0,25)"><ellipse rx="15" ry="25"/></g></g><g transform="translate(275,0)"><polygon points="0,30 0,50 0,0 10,0 20,2.5 30,5 32.5,7.5 35,10 35,15 0,30 35,50"/></g><g transform="translate(350,0)"><polygon points="0,0 15,50 25,25 35,50 50,0 35,50 25,25 15,50"/></g><g transform="translate(400,0)"><polygon points="10,25 10,0 10,60 10,25 40,25 40,-10 40,50 40,25 120,25"/></g><g transform="translate(475,0)"><g transform="translate(0,25)"><ellipse rx="15" ry="25"/></g></g></g></g></g></g></g></g></g></svg>
