<?xml version="1.0" encoding="US-ASCII" standalone="no"?>
<!DOCTYPE svg PUBLIC "-//W3C//DTD SVG 1.1//EN"
  "http://www.w3.org/Graphics/SVG/1.1/DTD/svg11.dtd">
<svg width="800" height="600" xmlns="http://www.w3.org/2000/svg" version="1.1"><g transform="translate(400,300)"><g transform="rotate(0)"><animateTransform attributeName="transform" type="rotate" repeatCount="indefinite" begin="0" dur="5" keyTimes="0;1" values="0;360"/><g transform="scale(0.5,0.5)"><animateTransform attributeName="transform" type="scale" repeatCount="indefinite" begin="0" dur="3" keyTimes="0;0.3333333333333333;0.6666666666666666;1" values="0.25,0.25;0.5,0.5;1,1;0.25,0.25"/><g transform="translate(-400,-300)"><g transform="translate(0,-100)"><animateTransform attributeName="transform" type="translate" repeatCount="indefinite" begin="0" dur="5" keyTimes="0;0.2;0.4;0.6;0.8;1" values="-200,-100;0,-100;200,100;0,100;-200,100;-200,-100"/><g stroke="#0000ff" stroke-opacity="1" stroke-width="5"><g fill="#ffffff" fill-opacity="1"><animate attributeName="fill" repeatCount="indefinite" begin="0" dur="4" keyTimes="0;0.5;1" values="#ffff00;#ffffff;#ffff00"/><polygon points="390,160 410,160 412,162 412,180 388,180 388,162"/></g></g><g transform="translate(330,180)"><g stroke="#0000ff" stroke-opacity="1" stroke-width="6"><g fill="#000000" fill-opacity="1"><rect width="140" height="20"/></g></g></g><g transform="translate(400,170)"><g fill="#ffff00" fill-opacity="1"><animate attributeName="fill-opacity" repeatCount="indefinite" begin="0" dur="1.5" keyTimes="0;0.5;1" values="0;1;0"/><circle r="20"/></g></g><g fill="#0000ff" fill-opacity="1"><polygon points="340,200 460,200 460,410 470,410 470,430 330,430 330,410 340,410 340,200"/></g><g stroke="#000000" stroke-opacity="1" stroke-width="5"><g fill="#ffffff" fill-opacity="1"><g transform="translate(350,210)"><rect width="13.5" height="20"/></g><g transform="translate(350,230)"><rect width="13.5" height="20"/></g><g transform="translate(363.5,210)"><rect width="13.5" height="20"/></g><g transform="translate(363.5,230)"><rect width="13.5" height="20"/></g><g transform="translate(377,210)"><rect width="13.5" height="20"/></g><g transform="translate(377,230)"><rect width="13.5" height="20"/></g></g></g><g stroke="#000000" stroke-opacity="1" stroke-width="5"><g fill="#ffffff" fill-opacity="1"><g transform="translate(410,210)"><rect width="13.5" height="20"/></g><g transform="translate(410,230)"><rect width="13.5" height="20"/></g><g transform="translate(423.5,210)"><rect width="13.5" height="20"/></g><g transform="translate(423.5,230)"><rect width="13.5" height="20"/></g><g transform="translate(437,210)"><rect width="13.5" height="20"/></g><g transform="translate(437,230)"><rect width="13.5" height="20"/></g></g></g><g transform="translate(350,260)"><g stroke="#000000" stroke-opacity="1" stroke-width="5"><g fill="#ffffff" fill-opacity="1"><rect width="40" height="40"/></g></g></g><g transform="translate(350,310)"><g stroke="#000000" stroke-opacity="1" stroke-width="5"><g fill="#0000ff" fill-opacity="1"><rect width="40" height="40"/></g></g></g><g transform="translate(350,360)"><g stroke="#000000" stroke-opacity="1" stroke-width="5"><g fill="#0000ff" fill-opacity="1"><rect width="40" height="40"/></g></g></g><g transform="translate(410,260)"><g stroke="#000000" stroke-opacity="1" stroke-width="5"><g fill="#0000ff" fill-opacity="1"><rect width="40" height="40"/></g></g></g><g transform="translate(410,310)"><g stroke="#000000" stroke-opacity="1" stroke-width="5"><g fill="#0000ff" fill-opacity="1"><rect width="40" height="40"/></g></g></g><g transform="translate(410,360)"><g stroke="#000000" stroke-opacity="1" stroke-width="5"><g fill="#0000ff" fill-opacity="1"><rect width="40" height="40"/></g></g></g></g></g></g></g></g></svg>
