<?xml version="1.0" encoding="US-ASCII" standalone="no"?>
<!DOCTYPE svg PUBLIC "-//W3C//DTD SVG 1.1//EN"
  "http://www.w3.org/Graphics/SVG/1.1/DTD/svg11.dtd">
<svg width="800" height="600" xmlns="http://www.w3.org/2000/svg" version="1.1"><g transform="translate(400,300)"><g transform="rotate(0)"><animateTransform attributeName="transform" type="rotate" repeatCount="indefinite" begin="0" dur="5" keyTimes="0;1" values="0;360"/><g transform="scale(0.5,0.5)"><animateTransform attributeName="transform" type="scale" repeatCount="indefinite" begin="0" dur="3" keyTimes="0;0.3333333333333333;0.6666666666666666;1" values="0.25,0.25;0.5,0.5;1,1;0.25,0.25"/><g stroke="#0000ff" stroke-opacity="1" stroke-width="5"><g fill="#ffffff" fill-opacity="1"><animate attributeName="fill" repeatCount="indefinite" begin="0" dur="4" keyTimes="0;0.5;1" values="#ffff00;#ffffff;#ffff00"/><polygon points="140,60 160,60 162,62 162,80 138,80 138,62"/></g></g><g transform="translate(80,80)"><g stroke="#0000ff" stroke-opacity="1" stroke-width="6"><g fill="#000000" fill-opacity="1"><rect width="140" height="20"/></g></g></g><g transform="translate(150,70)"><g fill="#ffff00" fill-opacity="1"><animate attributeName="fill-opacity" repeatCount="indefinite" begin="0" dur="1.5" keyTimes="0;0.5;1" values="0;1;0"/><circle r="20"/></g></g><g fill="#0000ff" fill-opacity="1"><polygon points="90,100 210,100 210,310 220,310 220,330 80,330 80,310 90,310 90,100"/></g><g transform="translate(100,110)"><g stroke="#000000" stroke-opacity="1" stroke-width="5"><g fill="#ffffff" fill-opacity="1"><g transform="translate(0,0)"><rect width="13.5" height="20"/></g><g transform="translate(0,20)"><rect width="13.5" height="20"/></g><g transform="translate(13.5,0)"><rect width="13.5" height="20"/></g><g transform="translate(13.5,20)"><rect width="13.5" height="20"/></g><g transform="translate(27,0)"><rect width="13.5" height="20"/></g><g transform="translate(27,20)"><rect width="13.5" height="20"/></g></g></g></g><g transform="translate(160,110)"><g stroke="#000000" stroke-opacity="1" stroke-width="5"><g fill="#ffffff" fill-opacity="1"><g transform="translate(0,0)"><rect width="13.5" height="20"/></g><g transform="translate(0,20)"><rect width="13.5" height="20"/></g><g transform="translate(13.5,0)"><rect width="13.5" height="20"/></g><g transform="translate(13.5,20)"><rect width="13.5" height="20"/></g><g transform="translate(27,0)"><rect width="13.5" height="20"/></g><g transform="translate(27,20)"><rect width="13.5" height="20"/></g></g></g></g><g transform="translate(100,160)"><g stroke="#000000" stroke-opacity="1" stroke-width="5"><g fill="#0000ff" fill-opacity="1"><g transform="translate(0,0)"><rect width="40" height="40"/></g><g transform="translate(0,50)"><rect width="40" height="40"/></g><g transform="translate(0,100)"><rect width="40" height="40"/></g><g transform="translate(60,0)"><rect width="40" height="40"/></g><g transform="translate(60,50)"><rect width="40" height="40"/></g><g transform="translate(60,100)"><rect width="40" height="40"/></g></g></g></g><g transform="translate(100,160)"><g stroke="#000000" stroke-opacity="1" stroke-width="5"><g fill="#ffffff" fill-opacity="1"><rect width="40" height="40"/></g></g></g></g></g></g></svg>
